# xmcd
#
# Track frame offsets: 
#        150
#        15323
#        28580
#        42702
#        55757
#        68459
#        83285
#        97750
#        111055
#        125093
#        135969
#        149714
#
# Disc length: 2478 seconds
#
# Revision: 0
# Processed by: cddbd v1.5.2PL0 Copyright (c) Steve Scherf et al.
# Submitted via: ExactAudioCopy v1.0b3
#
DISCID=9209ac0c
DTITLE=Boulevard Des Airs - Les Apparences Trompeuses
DYEAR=2013
DGENRE=
TTITLE0=Je Cours
TTITLE1=Bla bla (version single)
TTITLE2=Ici ici
TTITLE3=J'm'excuse pas
TTITLE4=Les apparences trompeuses
TTITLE5=Les ponts de mai
TTITLE6=Y siguen
TTITLE7=On the run
TTITLE8=Je reste calme
TTITLE9=Tiens et miennes
TTITLE10=Tout le monde
TTITLE11=L'empire du chat
EXTD=
EXTT0=
EXTT1=
EXTT2=
EXTT3=
EXTT4=
EXTT5=
EXTT6=
EXTT7=
EXTT8=
EXTT9=
EXTT10=
EXTT11=
PLAYORDER=
